<svg id="Layer_1" data-name="Layer 1" xmlns="http://www.w3.org/2000/svg" viewBox="0 0 64 64"><defs><style>.cls-1{fill:none;stroke:#4399ee;stroke-linecap:round;stroke-linejoin:round;stroke-width:4px;}</style></defs><title>backpackIcons</title><path class="cls-1" d="M58.67,29a9,9,0,0,0-11.94-8.5,15,15,0,0,0-27.94-4.26A13.58,13.58,0,0,0,16.25,16,11.22,11.22,0,0,0,5,27v0.5A11.87,11.87,0,0,0,16.5,39H48.93a9.77,9.77,0,0,0,6.92-3.22A9.54,9.54,0,0,0,58.67,29Z"/><polyline class="cls-1" points="27.88 51.79 32 47.66 36.13 51.79"/><line class="cls-1" x1="32" y1="48" x2="32" y2="56"/></svg>